<?xml version="1.0" standalone="no"?>
<!DOCTYPE svg PUBLIC "-//W3C//DTD SVG 1.1//EN" "http://www.w3.org/Graphics/SVG/1.1/DTD/svg11.dtd">
<svg width="135cm" height="135cm" viewBox="0 0 13500 10500" xmlns="http://www.w3.org/2000/svg" version="1.1">
<title>The Map of Foobar City</title>
<desc>paths that describe all the streets</desc>
<defs>
    <path id="s01" d="M 5076 6081 L 5905 5770" />
    <path id="s02" d="M 5101 6645 L 5856 6673" />
    <path id="s03" d="M 5425 7700 L 5972 7513" />
    <path id="s04" d="M 5774 8413 L 6321 8113" />
    <path id="s05" d="M 6219 8917 L 6734 8607" />
    <path id="s06" d="M 4910 6881 L 5097 7672" />
    <path id="s07" d="M 5605 6846 L 5704 7488" />
    <path id="s08" d="M 4487 7033 L 4720 7788" />
    <path id="s09" d="M 6533 5985 L 7027 5534" />
    <path id="s10" d="M 8403 7636 L 8953 7326" />
    <path id="s11" d="M 8078 6889 L 8396 6656" />
    <path id="s12" d="M 7006 9330 L 7669 9055" />
    <path id="s13" d="M 9271 8342 L 9849 8088" />
    <path id="s14" d="M 8628 7897 L 8939 8321" />
    <path id="s15" d="M 9553 7005 L 9719 7397" />
    <path id="s16" d="M 10555 6712 L 10865 7220" />
    <path id="s17" d="M 10364 5760 L 11028 4644" />
    <path id="s18" d="M 9362 3460 L 10032 3777" />
    <path id="s19" d="M 10992 1844 L 11775 1731" />
    <path id="s20" d="M 8770 4144 L 8890 3629" />
    <path id="s21" d="M 9186 4349 L 9306 3932" />
    <path id="s22" d="M 8099 4969 L 8198 4490" />
    <path id="s23" d="M 7888 4236 L 8205 4264" />
    <path id="s24" d="M 6222 5132 L 6540 4751" />
    <path id="s25" d="M 6547 4349 L 6738 4476" />
    <path id="s26" d="M 6378 4384 L 6526 4207" />
    <path id="s27" d="M 5658 5202 L 5799 4984" />
    <path id="s28" d="M 5884 5153 L 6060 5280" />
    <path id="s29" d="M 6568 4906 L 6745 5047" />
    <path id="s30" d="M 6759 5298 L 6970 5015" />
    <path id="s31" d="M 6893 6324 L 7161 6508" />
    <path id="s32" d="M 8149 6282 L 8459 5957" />
    <path id="s33" d="M 9144 6317 L 9383 6670" />
    <path id="s34" d="M 8311 5604 L 8579 5696" />
    <path id="s35" d="M 7246 4483 L 7780 5541" />
    <path id="s36" d="M 7852 5809 L 7993 6218" />
    <path id="s37" d="M 6554 7312 L 7260 7072" />
    <path id="s38" d="M 6935 6712 L 7260 6726" />
    <path id="s39" d="M 7295 7389 L 7563 7135" />
    <path id="s40" d="M 6512 7143 L 6575 6881" />
    <path id="s41" d="M 6625 6670 L 6738 6402" />
    <path id="s42" d="M 6850 6211 L 6963 5978" />
    <path id="s43" d="M 6925 6874 L 6984 7174" />
    <path id="s44" d="M 7196 7594 L 7341 7816" />
    <path id="s45" d="M 7238 7058 L 7288 6839" />
    <path id="s46" d="M 7408 7651 L 7641 7474" />
    <path id="s47" d="M 7648 7143 L 7718 7368" />
    <path id="s48" d="M 7803 7347 L 7895 7220" />
    <path id="s49" d="M 7852 7481 L 8008 7608" />
    <path id="s50" d="M 8212 7404 L 8382 7241" />
    <path id="s51" d="M 9031 6635 L 9327 6451" />
    <path id="s52" d="M 8685 6381 L 8770 6134" />
    <path id="s53" d="M 8389 6254 L 8530 6416" />
    <path id="s54" d="M 7641 5858 L 7732 6056" />
    <path id="s55" d="M 7351 6091 L 7535 6373" />
    <path id="s56" d="M 7175 6239 L 7365 6416" />
    <path id="s57" d="M 7373 5590 L 7641 5633" />
    <path id="s58" d="M 7380 5971 L 7563 5851" />
    <path id="s59" d="M 7344 5703 L 7358 5880" />
    <path id="s60" d="M 7478 6218 L 7598 6105" />
    <path id="s61" d="M 7323 6578 L 7450 6465" />
    <path id="s62" d="M 7584 6296 L 7782 6196" />
    <path id="s63" d="M 7648 6656 L 7831 6599" />
    <path id="s64" d="M 7055 5696 L 7154 5816" />
    <path id="s65" d="M 8156 5227 L 8247 5488" />
</defs>
<text font-size="50"><textPath xlink:href="#s01">Bernard Becue Avenue</textPath></text>
<text font-size="50"><textPath xlink:href="#s02">Geert De Soete Avenue</textPath></text>
<text font-size="50"><textPath xlink:href="#s03">Mario Maccarini Avenue</textPath></text>
<text font-size="50"><textPath xlink:href="#s04">Luc Verschraegen Avenue</textPath></text>
<text font-size="50"><textPath xlink:href="#s05">Jurgen Lust Avenue</textPath></text>
<text font-size="50"><textPath xlink:href="#s06">Evelyne De Cordier Avenue</textPath></text>
<text font-size="50"><textPath xlink:href="#s07">Robert Hoogewijs Avenue</textPath></text>
<text font-size="80"><textPath xlink:href="#s08">Paulo Soares Way</textPath></text>
<text font-size="80"><textPath xlink:href="#s09">Ringway North</textPath></text>
<text font-size="80"><textPath xlink:href="#s10">Ringway South</textPath></text>
<text font-size="30"><textPath xlink:href="#s11">Castle Drive</textPath></text>
<text font-size="80"><textPath xlink:href="#s13">Coast Way</textPath></text>
<text font-size="80"><textPath xlink:href="#s12">Foobar Beach</textPath></text>
<text font-size="80"><textPath xlink:href="#s14">Jago Drive</textPath></text>
<text font-size="30"><textPath xlink:href="#s15">Carsten Hammer Street</textPath></text>
<text font-size="50"><textPath xlink:href="#s16">Harbor Drive</textPath></text>
<text font-size="80"><textPath xlink:href="#s17">Leonard Rosenthol Way</textPath></text>
<text font-size="80"><textPath xlink:href="#s18">Mark Hall Way</textPath></text>
<text font-size="80"><textPath xlink:href="#s19">iText Highway</textPath></text>
<text font-size="25"><textPath xlink:href="#s20">Godfried Verhamme Street</textPath></text>
<text font-size="25"><textPath xlink:href="#s21">Johan Brusselaers Street</textPath></text>
<text font-size="25"><textPath xlink:href="#s22">Michiel Masson street</textPath></text>
<text font-size="50"><textPath xlink:href="#s23">Industry Lane</textPath></text>
<text font-size="50"><textPath xlink:href="#s24">University Alley</textPath></text>
<text font-size="25"><textPath xlink:href="#s25">Dirk De Meyer Street</textPath></text>
<text font-size="25"><textPath xlink:href="#s26">Firmin Mees Street</textPath></text>
<text font-size="25"><textPath xlink:href="#s27">Romain Vinckier Street</textPath></text>
<text font-size="25"><textPath xlink:href="#s28">Kris Lazeure Street</textPath></text>
<text font-size="25"><textPath xlink:href="#s29">Charles Vermeersch Street</textPath></text>
<text font-size="25"><textPath xlink:href="#s30">Bernard Sercu Street</textPath></text>
<text font-size="30"><textPath xlink:href="#s31">Kris Coolsaet Street</textPath></text>
<text font-size="30"><textPath xlink:href="#s32">Philip Tempelaere Street</textPath></text>
<text font-size="25"><textPath xlink:href="#s33">Foobar Station Alley</textPath></text>
<text font-size="25"><textPath xlink:href="#s34">Java Street</textPath></text>
<text font-size="80"><textPath xlink:href="#s35">Ingeborg Willaert Drive</textPath></text>
<text font-size="80"><textPath xlink:href="#s36">Inigo Drive</textPath></text>
<text font-size="30"><textPath xlink:href="#s37">Jan Van Campenhout Street</textPath></text>
<text font-size="30"><textPath xlink:href="#s38">Movie Drive</textPath></text>
<text font-size="30"><textPath xlink:href="#s39">Aandi Inston Street</textPath></text>
<text font-size="25"><textPath xlink:href="#s40">Barry Klawans Street</textPath></text>
<text font-size="25"><textPath xlink:href="#s41">Stanley Wang Street</textPath></text>
<text font-size="25"><textPath xlink:href="#s42">Rudy Vansnick Street</textPath></text>
<text font-size="25"><textPath xlink:href="#s43">J. Dubrulle Str.</textPath></text>
<text font-size="25"><textPath xlink:href="#s44">W. De Witte Str.</textPath></text>
<text font-size="25"><textPath xlink:href="#s45">A. Gelders Str.</textPath></text>
<text font-size="25"><textPath xlink:href="#s46">I. Huys Str.</textPath></text>
<text font-size="25"><textPath xlink:href="#s47">Manning Str.</textPath></text>
<text font-size="25"><textPath xlink:href="#s48">H. Jones Str.</textPath></text>
<text font-size="25"><textPath xlink:href="#s49">M. Bace Str.</textPath></text>
<text font-size="25"><textPath xlink:href="#s50">Castle path</textPath></text>
<text font-size="25"><textPath xlink:href="#s51">Steve Appling Str.</textPath></text>
<text font-size="25"><textPath xlink:href="#s52">Stuart Caborn Street</textPath></text>
<text font-size="25"><textPath xlink:href="#s53">Bill Ensley Street</textPath></text>
<text font-size="25"><textPath xlink:href="#s54">F. Peers Str.</textPath></text>
<text font-size="25"><textPath xlink:href="#s55">K. Tegtmeyer Str.</textPath></text>
<text font-size="25"><textPath xlink:href="#s56">K. Meuleman Str.</textPath></text>
<text font-size="25"><textPath xlink:href="#s57">D. De Decker Str.</textPath></text>
<text font-size="25"><textPath xlink:href="#s58">Patrick Debois Str.</textPath></text>
<text font-size="25"><textPath xlink:href="#s59">Gert Dewit Str.</textPath></text>
<text font-size="25"><textPath xlink:href="#s60">Ypres Str.</textPath></text>
<text font-size="25"><textPath xlink:href="#s61">Ghent Str.</textPath></text>
<text font-size="25"><textPath xlink:href="#s62">Church Str.</textPath></text>
<text font-size="25"><textPath xlink:href="#s63">Book Lane</textPath></text>
<text font-size="25"><textPath xlink:href="#s64">Justin Lee Str.</textPath></text>
<text font-size="25"><textPath xlink:href="#s65">Vineet Reynolds Str.</textPath></text>
</svg>