<?xml version="1.0" standalone="no"?>
<!DOCTYPE svg PUBLIC "-//W3C//DTD SVG 1.1//EN" "http://www.w3.org/Graphics/SVG/1.1/DTD/svg11.dtd">
<svg width="135cm" height="135cm" viewBox="0 0 13500 10500" xmlns="http://www.w3.org/2000/svg" version="1.1">
<title>The Map of Foobar City</title>
<desc>paths that describe all the streets</desc>
<path d="M 5720 9900 L 5399 9579 L 5168 9329 L 5020 9078 L 4860 8802 L 4699 8443 L 4565 8083 L 4481 7813 L 4365 7447 L 4269 7075 L 4205 6748 L 4160 6426 L 4430 6227 L 4661 6067 L 4847 5964 L 5014 5874 L 5181 5791 L 5309 5746 L 5052 5406 L 4789 5052 L 4584 4783 L 4417 4545 L 4263 4321 L 4160 4186 L 3993 3967 L 3916 3858 L 4147 3685 L 4365 3550 L 4590 3422 L 4860 3280 L 5130 3165 L 5425 3036 L 5733 2914 L 6009 2825 L 6317 2741 L 7030 2542 L 7467 2407 L 7845 2311 L 8231 2221 L 8667 2118 L 8905 2073 L 9226 2016 L 9502 1977 L 9675 1983 L 9463 3261 L 9868 3351 L 10125 3434 L 10561 3582 L 11024 3788 L 11274 3910 L 11685 4128 L 11646 4314 L 11595 4526 L 11505 4738 L 11370 5014 L 11242 5284 L 11081 5579 L 10940 5823 L 10825 5990 L 10709 6163 L 10587 6330 L 10889 6670 L 11017 6934 L 11152 7235 L 11242 7505 L 11287 7614 L 11300 7756 L 11300 7794 z"
 fill="lightyellow" stroke="black" stroke-width="3" />
<path d="M 6000 10304 L 5020 10304 L 5354 10093 L 5720 9900 L 5842 9836 L 5964 9784 L 5964 9733 L 5939 9688 L 5906 9675 L 5797 9727 L 5483 9406 L 5495 9380 L 6118 9052 L 6163 9065 L 6234 9200 L 6247 9508 L 6208 9521 L 6131 9553 L 6099 9585 L 6105 9630 L 6144 9662 L 6208 9688 L 6260 9688 L 8500 8853 L 8744 8764 L 8815 8699 L 8841 8661 L 9181 8507 L 9226 8507 L 9290 8513 L 9585 8378 L 9971 8250 L 10183 8154 L 10215 8141 L 10189 8122 L 10414 8025 L 10388 7935 L 10337 7878 L 10260 7903 L 10183 7942 L 10138 7942 L 10048 7858 L 9900 7678 L 9861 7608 L 9855 7499 L 9964 7377 L 10073 7293 L 10253 7191 L 10394 7146 L 10568 7113 L 10658 7120 L 10741 7178 L 10792 7268 L 10825 7377 L 10857 7454 L 10882 7569 L 10889 7634 L 10870 7666 L 10735 7717 L 10645 7749 L 10619 7781 L 10619 7845 L 10645 7897 L 10683 7916 L 10715 7903 L 10927 7826 L 10921 7858 L 11049 7833 L 11184 7800 L 11293 7781 L 11479 7691 L 11749 7595 L 12423 7300 L 12751 7158 L 12751 7500 z"
 fill="aquamarine" stroke="black" stroke-width="3" />
<path d="M 8166 7158 L 8154 7056 L 8250 6921 L 8378 6837 L 8545 6760 L 8731 6748 L 8892 6767 L 9020 6863 L 9033 6953 L 9008 7043 L 8924 7152 L 8802 7313 L 8654 7428 L 8520 7479 L 8449 7447 L 8333 7370 L 8243 7274 L 8173 7165 z"
 fill="aquamarine" stroke="black" stroke-width="3" />
<path d="M 8436 7203 L 8404 7113 L 8481 7017 L 8590 6927 L 8731 6914 L 8789 6959 L 8776 7024 L 8744 7075 L 8661 7165 L 8622 7210 L 8507 7229 L 8443 7203 z"
 fill="gray" stroke="black" stroke-width="3" />
<path d="M 8314 3113 L 9155 3402 L 9239 2812 L 9130 2568 L 8295 2709 L 8321 3113 z"
 fill="gray" stroke="black" stroke-width="3" />
<path d="M 7678 6362 L 7563 6414 L 7589 6465 L 7698 6420 L 7711 6452 L 7762 6433 L 7736 6401 L 7775 6369 L 7756 6324 L 7717 6343 L 7691 6292 L 7646 6311 L 7678 6356 z"
 fill="gray" stroke="black" stroke-width="3" />
<path d="M 6953 3454 L 7133 4256 L 7826 4237 L 7768 3576 L 6959 3454 z"
 fill="lawngreen" stroke="black" stroke-width="3" />
<path d="M 9245 5451 L 8911 5881 L 8802 5804 L 9136 5354 L 9239 5444 z"
 fill="blue" stroke="black" stroke-width="3" />
<polyline points="6093,1592 6227,1868 6311,2028 6382,2182 6439,2324 6523,2491 6619,2741 6677,2869 6908,3512 6979,3820 7036,4051 7107,4314 7216,4500 7319,4674 7377,4783 7447,4924 7524,5052 7601,5213 7698,5463 7781,5630 7826,5797 7922,6003 7974,6234 7980,6349 7961,6465 7935,6606 7910,6767 7897,6927 7929,7133 8025,7261 8160,7435 8263,7576 8378,7711 8487,7833 8603,7948 8693,8077 8815,8231 8886,8314 8982,8430 9020,8500 10285,7961"
 fill="none" stroke="orange" stroke-width="30" />
<polyline points="12282,1341 11942,2420 11672,3126 11492,3601 11152,4378 10921,4879 10568,5515 10247,6016 9932,6465 9598,6831 9284,7126 8879,7409 8539,7614 8340,7704 8070,7781 7691,7845 7293,7871 6979,7833 6709,7666 6523,7479 6349,7184 6292,6869 6304,6581 6375,6337 6510,6086 6677,5894 6889,5701 7075,5547 7338,5380 7582,5245 7858,5136 8077,5085 8455,5027 8783,5052 9059,5142 9290,5303 9695,5688 9887,5906 10048,6118 10304,6439 10484,6690 10626,6876 10773,7120 10876,7338 10927,7524 10966,7717 10696,7826"
 fill="none" stroke="orange" stroke-width="30" />
<polyline points="5919,9739 5791,9804 5412,9406 5174,9001 4886,8436 4629,7736 4462,7184 4372,6696 4295,6009 4282,4731 4423,3133"
 fill="none" stroke="orange" stroke-width="30" />
<polyline points="12192,5065 11653,4719 11011,4321 10382,3987 9817,3723 9290,3479 8532,3216 7756,2959 6876,2696 6227,2574 5585,2465"
 fill="none" stroke="orange" stroke-width="30" />
<polyline points="9001,8513 8648,8661 8359,8783 8154,8886 7826,9020 7447,9187 7075,9335 6735,9438 6414,9540 6144,9611"
 fill="none" stroke="yellow" stroke-width="20" />
<polyline points="8192,7454 8507,7171"
 fill="none" stroke="blue" stroke-width="15" />
<polyline points="7935,7088 8096,6902 8295,6754 8481,6645 8699,6600 8956,6632 9059,6722 9123,6825 9142,6979 9136,7107 9059,7235"
 fill="none" stroke="yellow" stroke-width="20" />
<polyline points="6767,4520 6478,4327 6638,4134 6478,4327 6343,4468"
 fill="none" stroke="yellow" stroke-width="20" />
<polyline points="6471,4892 6792,5117 6914,4943 6792,5117 6670,5264"
 fill="none" stroke="yellow" stroke-width="20" />
<polyline points="6099,5341 5752,5123 5900,4924 5900,4924 5752,5110 5624,5284"
 fill="none" stroke="yellow" stroke-width="20" />
<polyline points="1290,5958 4706,3916 5906,3357 8404,2516 9367,2279 11942,1894 12950,1900"
 fill="none" stroke="red" stroke-width="50" />
<polyline points="5772,3422 5958,3377 6118,3351 6247,3345 6382,3338 6491,3345 6613,3351 6709,3364 6786,3377 6850,3402 6876,3422"
 fill="none" stroke="red" stroke-width="50" />
<polyline points="1239,5874 4635,3820 5791,3274 8327,2401 9412,2131 11845,1772 12937,1765"
 fill="none" stroke="red" stroke-width="50" />
<polyline points="7640,2626 7447,2638 7325,2645 7133,2651 6979,2651 6786,2638 6619,2632"
 fill="none" stroke="red" stroke-width="50" />
<polyline points="8417,3794 8314,4224 8308,4231 8269,4398 8109,5065 8102,5065"
 fill="none" stroke="yellow" stroke-width="20" />
<polyline points="8995,3409 8757,4314 8719,4455 8616,4802"
 fill="none" stroke="yellow" stroke-width="20" />
<polyline points="9341,3974 9200,4417 9130,4584 8969,5104 8969,5104 9142,4590"
 fill="none" stroke="yellow" stroke-width="20" />
<polyline points="8950,5136 8866,5438 8776,5605 8603,5855 7974,6497"
 fill="none" stroke="yellow" stroke-width="20" />
<polyline points="7120,4301 7473,4301 7768,4282 8057,4282 8211,4301 8256,4250 8333,4243 8385,4295 8385,4333 8365,4359 8327,4398 8269,4398 8224,4353 8211,4308 8378,4321 8661,4372 8699,4340 8744,4321 8802,4327 8834,4365 8841,4410 8802,4449 8764,4462 8706,4449 8667,4410 8667,4365 8847,4410 9097,4475 9130,4436 9174,4417 9239,4436 9271,4481 9264,4526 9232,4565 9168,4590 9104,4565 9104,4513 9091,4481 9258,4520 9528,4642"
 fill="none" stroke="yellow" stroke-width="20" />
<polyline points="7435,6760 4372,6638"
 fill="none" stroke="yellow" stroke-width="20" />
<polyline points="7698,6966 4738,7948"
 fill="none" stroke="yellow" stroke-width="20" />
<polyline points="7730,6991 7332,7402 6876,7768 6337,8134 5097,8815"
 fill="none" stroke="yellow" stroke-width="20" />
<path d="M 10651 693 L 10619 943 L 10606 1085 L 10600 1271 L 10574 1438 L 10555 1566 L 10382 2715 L 10292 3223 L 10189 3736 L 10080 4218 L 9906 4597 L 9611 5059 L 9367 5425 L 8963 5971 L 8943 5990 M 10105 4096 L 9926 4276 L 9804 4455 L 9361 5155"
 fill="none" stroke="black" stroke-width="10" />
<path d="M 10792 686 L 10754 1149 L 10703 1444 L 10330 3826 L 10247 4044 L 10183 4243 L 9996 4674 L 9033 6105"
 fill="none" stroke="black" stroke-width="10" />
<path d="M 10330 3826 L 10304 4423 L 10272 4539 L 10176 4699 L 9142 6221 L 9130 6240 M 10311 4256 L 10401 4571 L 10401 4635 L 9817 5566"
 fill="none" stroke="black" stroke-width="10" />
<polyline points="7813,5707 7974,5637 8096,5624 8237,5617 8404,5656 8584,5727 8712,5810 8809,5900 8892,6022 8982,6157 9155,6407 9264,6574 9361,6690 9444,6825 9502,7011 9553,7120 9624,7293 9695,7454 9765,7563 9861,7717 9939,7807 10035,7922 10099,8006"
 fill="none" stroke="yellow" stroke-width="20" />
<polyline points="7300,5617 7338,5701 7351,5772 7351,5829 7364,5906 7357,5971 7351,6016"
 fill="none" stroke="blue" stroke-width="15" />
<polyline points="8276,6202 8404,6311 8487,6407 8545,6497 8597,6613"
 fill="none" stroke="blue" stroke-width="15" />
<polyline points="7364,7717 7640,7512 7730,7428 7833,7338 7948,7191"
 fill="none" stroke="blue" stroke-width="15" />
<polyline points="7627,7113 7736,7415"
 fill="none" stroke="blue" stroke-width="15" />
<polyline points="7743,7422 8141,7730"
 fill="none" stroke="blue" stroke-width="15" />
<polyline points="6998,5650 7178,5874 7261,5983 7383,6163 7454,6272 7537,6426"
 fill="none" stroke="blue" stroke-width="15" />
<polyline points="7197,6548 7280,6426 7364,6349 7454,6266 7544,6195 7646,6112 7743,6067 7807,6048 7903,6035"
 fill="none" stroke="blue" stroke-width="15" />
<polyline points="7075,5926 7075,6035 7081,6138 7113,6189 7165,6247 7229,6311 7293,6369 7364,6426 7435,6491 7499,6548 7556,6606 7640,6690"
 fill="none" stroke="blue" stroke-width="15" />
<polyline points="7775,5739 7627,5836 7524,5894 7409,5977 7325,6054 7235,6138 7152,6227"
 fill="none" stroke="blue" stroke-width="15" />
<polyline points="7306,6632 7473,6471 7544,6394 7646,6349 7614,6298 7704,6266 7723,6311 7800,6247 7833,6234 7878,6221 7942,6234"
 fill="none" stroke="blue" stroke-width="15" />
<polyline points="7293,5598 7756,5675"
 fill="none" stroke="blue" stroke-width="15" />
<polyline points="8834,5958 8789,6150 8738,6304 8648,6510 8603,6606"
 fill="none" stroke="blue" stroke-width="15" />
<polyline points="9226,6542 9014,6670"
 fill="none" stroke="blue" stroke-width="15" />
<polyline points="8102,5097 8102,5194 8128,5258 8166,5316 8205,5406 8224,5489 8231,5547 8224,5605"
 fill="none" stroke="blue" stroke-width="15" />
<polyline points="7486,6767 7634,6703 7704,6658 7781,6638 7865,6613 7903,6600"
 fill="none" stroke="blue" stroke-width="15" />
<polyline points="7377,5399 7505,5617 7569,5772 7640,5926 7723,6093 7762,6260 7820,6382 7858,6606"
 fill="none" stroke="blue" stroke-width="15" />
<polyline points="7210,5502 7280,5592 7287,5643 7268,5707 7210,5772 7139,5836 7043,5958 6959,6054 6895,6170 6780,6407 6715,6548 6645,6741 6600,6895 6555,7088 6523,7229 6484,7345"
 fill="none" stroke="blue" stroke-width="15" />
<polyline points="7402,7845 7377,7743 7313,7627 7197,7486 7069,7383 7011,7280 6940,7120 6908,6985 6902,6844 6908,6741"
 fill="none" stroke="blue" stroke-width="15" />
<polyline points="7338,6780 7287,6966 7274,7030 7261,7133 7235,7261 7223,7460"
 fill="none" stroke="blue" stroke-width="15" />
<polyline points="7062,4179 6902,4378 6696,4616 6561,4796 6375,4995 6208,5200 5932,5598 5836,5810 5772,6073 5720,6356 5707,6683 5727,6972 5797,7357 5906,7634 6061,7890 6221,8070 6529,8295 6908,8455 8147,8886"
 fill="none" stroke="yellow" stroke-width="20" />
<polyline points="7524,5245 6658,5547 6086,5739 5438,5964 5085,6105 4629,6337 4044,6658"
 fill="none" stroke="yellow" stroke-width="20" />
<polyline points="8340,7730 7820,8012 7357,8301 6863,8565 6471,8809 5932,9097 5386,9348"
 fill="none" stroke="yellow" stroke-width="20" />
<polyline points="5181,6073 5059,6504 5040,6767 5052,7081 5187,7589 5335,7961 5463,8205 5656,8449 5926,8699 6073,8873 6182,9014 6247,9104 6298,9219 6298,9329 6298,9566"
 fill="none" stroke="yellow" stroke-width="20" />
<polyline points="5829,5829 6170,5913 6471,6073 6780,6279 7152,6529 7890,7107"
 fill="none" stroke="yellow" stroke-width="20" />
</svg>